<svg xmlns="http://www.w3.org/2000/svg" width="485.833" height="483.5" viewBox="0 0 485.833 483.5">
  <g id="Frontend_empty_Quote_list_illustration" data-name="Frontend empty Quote list illustration" transform="translate(0)">
    <path id="Path_492" data-name="Path 492" d="M677.542,336.347H597.8a11.478,11.478,0,0,1-9.066-4.394h0a11.621,11.621,0,0,1-2.177-9.968,201.631,201.631,0,0,0,0-93.647,11.624,11.624,0,0,1,2.177-9.967,11.478,11.478,0,0,1,9.066-4.394h79.741a11.624,11.624,0,0,1,11.439,9.755,337.961,337.961,0,0,1,0,102.858,11.623,11.623,0,0,1-11.438,9.756Z" transform="translate(-357.083 -208.25)" fill="#e6e6e6"/>
    <path id="Path_493" data-name="Path 493" d="M597.8,219.978a5.513,5.513,0,0,0-4.355,2.108,5.659,5.659,0,0,0-1.054,4.854,207.655,207.655,0,0,1,0,96.445,5.656,5.656,0,0,0,1.053,4.853h0a5.511,5.511,0,0,0,4.354,2.109h79.741a5.583,5.583,0,0,0,5.509-4.667,331.985,331.985,0,0,0,0-101.035,5.583,5.583,0,0,0-5.509-4.667Z" transform="translate(-357.083 -208.25)" fill="#fff"/>
    <path id="Path_494" data-name="Path 494" d="M660.141,248.829H618.3a6.006,6.006,0,0,1-6-6v-2.345a6.006,6.006,0,0,1,6-6h41.845a6.006,6.006,0,0,1,6,6v2.344a6.006,6.006,0,0,1-6,6Z" transform="translate(-357.083 -208.25)" fill="#e6e6e6"/>
    <path id="Path_495" data-name="Path 495" d="M660.141,278.454H618.3a6.006,6.006,0,0,1-6-6V270.11a6.006,6.006,0,0,1,6-6h41.845a6.006,6.006,0,0,1,6,6v2.345a6.006,6.006,0,0,1-6,6Z" transform="translate(-357.083 -208.25)" fill="#e6e6e6"/>
    <path id="Path_496" data-name="Path 496" d="M660.141,308.08H618.3a6.006,6.006,0,0,1-6-6v-2.345a6.006,6.006,0,0,1,6-6h41.845a6.006,6.006,0,0,1,6,6v2.345A6.006,6.006,0,0,1,660.141,308.08Z" transform="translate(-357.083 -208.25)" fill="#e6e6e6"/>
    <path id="Path_497" data-name="Path 497" d="M827.542,412.347H747.8a11.478,11.478,0,0,1-9.066-4.394h0a11.621,11.621,0,0,1-2.177-9.968,201.631,201.631,0,0,0,0-93.647,11.624,11.624,0,0,1,2.177-9.967,11.477,11.477,0,0,1,9.066-4.394h79.741a11.624,11.624,0,0,1,11.439,9.755,337.961,337.961,0,0,1,0,102.858,11.623,11.623,0,0,1-11.438,9.756Z" transform="translate(-357.083 -208.25)" fill="#e6e6e6"/>
    <path id="Path_498" data-name="Path 498" d="M747.8,295.978a5.513,5.513,0,0,0-4.354,2.108,5.659,5.659,0,0,0-1.054,4.854,207.656,207.656,0,0,1,0,96.445,5.656,5.656,0,0,0,1.053,4.853h0a5.511,5.511,0,0,0,4.354,2.109h79.741a5.583,5.583,0,0,0,5.509-4.667,331.983,331.983,0,0,0,0-101.035,5.583,5.583,0,0,0-5.509-4.667Z" transform="translate(-357.083 -208.25)" fill="#fff"/>
    <path id="Path_499" data-name="Path 499" d="M668.542,498.847H588.8a11.976,11.976,0,0,1-9.458-4.584,12.119,12.119,0,0,1-2.27-10.394,201.13,201.13,0,0,0,0-93.414,12.121,12.121,0,0,1,2.27-10.394,11.976,11.976,0,0,1,9.458-4.584h79.741a12.127,12.127,0,0,1,11.933,10.179,338.457,338.457,0,0,1,0,103.011,12.127,12.127,0,0,1-11.932,10.179Z" transform="translate(-357.083 -208.25)" fill="#f2f2f2"/>
    <path id="Path_500" data-name="Path 500" d="M810.141,339.829H768.3a6.006,6.006,0,0,1-6-6v-2.345a6.006,6.006,0,0,1,6-6h41.845a6.006,6.006,0,0,1,6,6v2.344a6.006,6.006,0,0,1-6,6Z" transform="translate(-357.083 -208.25)" fill="#e6e6e6"/>
    <path id="Path_501" data-name="Path 501" d="M810.141,369.454H768.3a6.006,6.006,0,0,1-6-6V361.11a6.006,6.006,0,0,1,6-6h41.845a6.006,6.006,0,0,1,6,6v2.345A6.006,6.006,0,0,1,810.141,369.454Z" transform="translate(-357.083 -208.25)" fill="#e6e6e6"/>
    <circle id="Ellipse_181" data-name="Ellipse 181" cx="23" cy="23" r="23" transform="translate(248.811 205.5)" fill="#fff"/>
    <path id="Path_502" data-name="Path 502" d="M639.894,433.75h-8v-8a3,3,0,0,0-6,0v8h-8a3,3,0,0,0,0,6h8v8a3,3,0,0,0,6,0v-8h8a3,3,0,1,0,0-6Z" transform="translate(-357.083 -208.25)" fill="#e6e6e6"/>
    <path id="Path_503" data-name="Path 503" d="M657.894,225.25h-42a4.505,4.505,0,0,1-4.5-4.5v-8a4.5,4.5,0,0,1,4.5-4.5h42a4.505,4.505,0,0,1,4.5,4.5v8a4.505,4.505,0,0,1-4.5,4.5Z" transform="translate(-357.083 -208.25)" fill="#ccc"/>
    <path id="Path_504" data-name="Path 504" d="M809.894,302.25h-42a4.505,4.505,0,0,1-4.5-4.5v-8a4.505,4.505,0,0,1,4.5-4.5h42a4.505,4.505,0,0,1,4.5,4.5v8a4.505,4.505,0,0,1-4.5,4.5Z" transform="translate(-357.083 -208.25)" fill="#ccc"/>
    <path id="Path_505" data-name="Path 505" d="M88.6,471.061h12.26l3.833-47.288h-16.1Z" fill="#ffb8b8"/>
    <path id="Path_506" data-name="Path 506" d="M442.552,675.308H466.7a15.386,15.386,0,0,1,15.387,15.387v.5h-39.53Z" transform="translate(-357.083 -208.25)" fill="#2f2e41"/>
    <path id="Path_507" data-name="Path 507" d="M22.6,471.061h12.26l5.833-47.288H22.594Z" fill="#ffb8b8"/>
    <path id="Path_508" data-name="Path 508" d="M376.552,675.308H400.7a15.386,15.386,0,0,1,15.387,15.387v.5h-39.53Z" transform="translate(-357.083 -208.25)" fill="#2f2e41"/>
    <path id="Path_509" data-name="Path 509" d="M381.854,664.373a4.982,4.982,0,0,1-3.374-1.318h0a4.961,4.961,0,0,1-1.616-3.537L371.947,483.3l69.811,17.452,21.54,64.618a70.46,70.46,0,0,1,3.545,25.824l-2.675,62.637a5,5,0,0,1-4.994,4.759H447.465a5.023,5.023,0,0,1-4.955-4.33l-8.369-69.142a37.823,37.823,0,0,0-5.532-15.164l-16.47-26.076a1,1,0,0,0-1.838.41L397.378,659.38a4.993,4.993,0,0,1-4.687,4.4l-10.552.587C382.044,664.369,381.949,664.373,381.854,664.373Z" transform="translate(-357.083 -208.25)" fill="#2f2e41"/>
    <circle id="Ellipse_182" data-name="Ellipse 182" cx="24.561" cy="24.561" r="24.561" transform="translate(48.497 111.845)" fill="#ffb8b8"/>
    <path id="Path_510" data-name="Path 510" d="M441.424,507.922a5.075,5.075,0,0,1-1.253-.159h0L370.906,490a5,5,0,0,1-3.663-5.815L383.15,398.5a31.214,31.214,0,0,1,18.25-22.54,30.113,30.113,0,0,1,28.266,2.075c.97.605,1.947,1.265,2.9,1.961a30.96,30.96,0,0,1,12.579,24.529l1.265,98.329a5.007,5.007,0,0,1-4.988,5.071Z" transform="translate(-357.083 -208.25)" fill="#6c63ff"/>
    <path id="Path_511" data-name="Path 511" d="M378.032,508.93a10.056,10.056,0,0,1,4.214-14.832l-3.081-35.6,16.326,8.848.423,32.452a10.11,10.11,0,0,1-17.882,9.134Z" transform="translate(-357.083 -208.25)" fill="#ffb8b8"/>
    <path id="Path_512" data-name="Path 512" d="M383.865,489.389a5.509,5.509,0,0,1-5.338-4.159L370.5,453.346a47.37,47.37,0,0,1,3.761-33.135l16.809-32.882a15.541,15.541,0,0,1,18.808-11.018,15.356,15.356,0,0,1,9.475,7.1,15.567,15.567,0,0,1,1.654,11.913l-23.927,53.506.284,32.036a5.519,5.519,0,0,1-3.584,5.2l-8.007,2.974a5.48,5.48,0,0,1-1.911.345Z" transform="translate(-357.083 -208.25)" fill="#6c63ff"/>
    <path id="Path_513" data-name="Path 513" d="M498.4,495.835a10.056,10.056,0,0,1-8.493-12.87l-28.993-20.889,17.357-6.6,24.872,20.849a10.11,10.11,0,0,1-4.742,19.512Z" transform="translate(-357.083 -208.25)" fill="#ffb8b8"/>
    <path id="Path_514" data-name="Path 514" d="M483.223,480.581A5.523,5.523,0,0,1,480.76,480l-29.4-14.717A47.381,47.381,0,0,1,428.7,440.817l-13.957-34.191a15.544,15.544,0,0,1,3.918-21.444,15.352,15.352,0,0,1,11.59-2.543,15.57,15.57,0,0,1,10.081,6.512l24.945,53.04,24.466,20.683a5.518,5.518,0,0,1,1.607,6.112l-2.97,8.008a5.5,5.5,0,0,1-5.157,3.588Z" transform="translate(-357.083 -208.25)" fill="#6c63ff"/>
    <path id="Path_515" data-name="Path 515" d="M424.983,369.593c1.3.571,3.977-9.827,2.78-11.907-1.78-3.093-1.675-3.071-2.857-5.117s-1.446-4.847.084-6.648,5.072-1.562,5.77.7c-.449-4.288,3.792-7.735,7.993-8.7s8.632-.367,12.857-1.229c4.9-1,10-5.11,8.047-10.5a7.594,7.594,0,0,0-1.481-2.434c-2.26-2.541-5.421-3.626-8.512-4.675-6.43-2.182-13.036-4.392-19.822-4.151A28.8,28.8,0,0,0,404.4,333.533a26.158,26.158,0,0,0-1.083,4.025c-2.329,12.524,4.944,24.878,16.756,29.647Z" transform="translate(-357.083 -208.25)" fill="#2f2e41"/>
    <path id="Path_516" data-name="Path 516" d="M38.9,273.343l.557-32.929L56.9,205.343l-14,36Z" opacity="0.2"/>
    <path id="Path_517" data-name="Path 517" d="M554.16,564.232l-73.638-30.595a11.478,11.478,0,0,1-6.686-7.536h0a11.622,11.622,0,0,1,1.815-10.04,201.632,201.632,0,0,0,35.93-86.48,11.624,11.624,0,0,1,5.834-8.369,11.478,11.478,0,0,1,10.058-.579l73.638,30.6a11.623,11.623,0,0,1,6.82,13.4,337.962,337.962,0,0,1-39.465,94.986,11.624,11.624,0,0,1-14.307,4.619Z" transform="translate(-357.083 -208.25)" fill="#e6e6e6"/>
    <path id="Path_518" data-name="Path 518" d="M525.171,426.174a5.513,5.513,0,0,0-4.83.276,5.659,5.659,0,0,0-2.835,4.078,207.656,207.656,0,0,1-37,89.064,5.656,5.656,0,0,0-.889,4.885h0a5.511,5.511,0,0,0,3.212,3.618l73.638,30.6a5.582,5.582,0,0,0,6.878-2.2,331.989,331.989,0,0,0,38.766-93.3,5.583,5.583,0,0,0-3.3-6.423Z" transform="translate(-357.083 -208.25)" fill="#fff"/>
    <path id="Path_519" data-name="Path 519" d="M564.38,494.281l-38.642-16.055a6.006,6.006,0,0,1-3.239-7.843l.9-2.165a6.006,6.006,0,0,1,7.843-3.239l38.642,16.055a6.006,6.006,0,0,1,3.239,7.843l-.9,2.165a6.006,6.006,0,0,1-7.843,3.239Z" transform="translate(-357.083 -208.25)" fill="#6c63ff"/>
    <path id="Path_520" data-name="Path 520" d="M553.013,521.64l-38.642-16.055a6.006,6.006,0,0,1-3.239-7.843l.9-2.165a6.006,6.006,0,0,1,7.843-3.239l38.643,16.056a6.006,6.006,0,0,1,3.239,7.843l-.9,2.165A6.006,6.006,0,0,1,553.013,521.64Z" transform="translate(-357.083 -208.25)" fill="#6c63ff"/>
    <path id="Path_521" data-name="Path 521" d="M579.864,455.832a4.489,4.489,0,0,1-1.687-.331l-38.938-15.743a4.505,4.505,0,0,1-2.485-5.858l3-7.417A4.5,4.5,0,0,1,545.611,424l38.938,15.743a4.505,4.505,0,0,1,2.485,5.858l-3,7.417A4.511,4.511,0,0,1,579.864,455.832Z" transform="translate(-357.083 -208.25)" fill="#ccc"/>
    <path id="Path_522" data-name="Path 522" d="M498.083,691.75h-140a1,1,0,0,1,0-2h140a1,1,0,0,1,0,2Z" transform="translate(-357.083 -208.25)" fill="#ccc"/>
  </g>
</svg>
