<svg xmlns="http://www.w3.org/2000/svg" width="26" height="26" viewBox="0 0 26 26">
  <g id="Icon_ionic-ios-checkbox-outline" data-name="Icon ionic-ios-checkbox-outline" transform="translate(-4.5 -4.5)">
    <path id="Path_490" data-name="Path 490" d="M28.333,4.5H6.667A2.164,2.164,0,0,0,4.5,6.667V28.333A2.164,2.164,0,0,0,6.667,30.5H28.333A2.164,2.164,0,0,0,30.5,28.333V6.667A2.164,2.164,0,0,0,28.333,4.5ZM28.6,28.063a.543.543,0,0,1-.542.542H6.938a.543.543,0,0,1-.542-.542V6.938A.543.543,0,0,1,6.938,6.4H28.063a.543.543,0,0,1,.542.542Z" fill="#707070"/>
  </g>
</svg>
