<svg xmlns="http://www.w3.org/2000/svg" width="26" height="26" viewBox="0 0 26 26">
  <g id="Icon_ionic-ios-checkbox-outline" data-name="Icon ionic-ios-checkbox-outline" transform="translate(-4.5 -4.5)">
    <path id="Path_490" data-name="Path 490" d="M28.333,4.5H6.667A2.164,2.164,0,0,0,4.5,6.667V28.333A2.164,2.164,0,0,0,6.667,30.5H28.333A2.164,2.164,0,0,0,30.5,28.333V6.667A2.164,2.164,0,0,0,28.333,4.5ZM28.6,28.063a.543.543,0,0,1-.542.542H6.938a.543.543,0,0,1-.542-.542V6.938A.543.543,0,0,1,6.938,6.4H28.063a.543.543,0,0,1,.542.542Z" fill="#10518d"/>
    <path id="Path_491" data-name="Path 491" d="M25.008,13.513l-1.192-1.226a.256.256,0,0,0-.19-.081h0a.246.246,0,0,0-.19.081l-8.26,8.321L12.17,17.6a.262.262,0,0,0-.379,0l-1.205,1.205a.27.27,0,0,0,0,.386l3.792,3.792a1.2,1.2,0,0,0,.792.386A1.256,1.256,0,0,0,15.955,23h.007l9.053-9.1A.289.289,0,0,0,25.008,13.513Z" transform="translate(-0.222 -0.285)" fill="#10518d"/>
  </g>
</svg>
