<svg xmlns="http://www.w3.org/2000/svg" width="36.01" height="31.5" viewBox="0 0 36.01 31.5">
  <g id="Quote_list_icon" data-name="Quote list icon" transform="translate(0 -32)">
    <path id="Path_466" data-name="Path 466" d="M32.663,32H8.985a3.351,3.351,0,0,0-3.347,3.347V56.805H.529A.529.529,0,0,0,0,57.334v2.819A3.351,3.351,0,0,0,3.347,63.5H27.025a3.351,3.351,0,0,0,3.347-3.347V38.695h5.109a.529.529,0,0,0,.529-.529V35.347A3.351,3.351,0,0,0,32.663,32ZM3.347,62.443a2.293,2.293,0,0,1-2.29-2.29v-2.29H23.678v2.29a3.335,3.335,0,0,0,.908,2.29Zm25.968-2.29a2.29,2.29,0,0,1-4.581,0V57.334a.529.529,0,0,0-.529-.529H6.695V35.347a2.293,2.293,0,0,1,2.29-2.29h21.24a3.334,3.334,0,0,0-.909,2.29V60.153Zm5.638-22.515H30.372v-2.29a2.29,2.29,0,0,1,4.581,0Z"/>
    <path id="Path_467" data-name="Path 467" d="M137.656,104h-1.128a.529.529,0,0,0,0,1.057h1.128a.529.529,0,0,0,0-1.057Z" transform="translate(-126.416 -66.926)"/>
    <path id="Path_468" data-name="Path 468" d="M196.931,104h-12.4a.529.529,0,0,0,0,1.057h12.4a.529.529,0,0,0,0-1.057Z" transform="translate(-171.034 -66.926)"/>
    <path id="Path_469" data-name="Path 469" d="M137.656,144h-1.128a.529.529,0,1,0,0,1.057h1.128a.529.529,0,0,0,0-1.057Z" transform="translate(-126.416 -104.107)"/>
    <path id="Path_470" data-name="Path 470" d="M184.529,145.057h10.148a.529.529,0,0,0,0-1.057H184.529a.529.529,0,0,0,0,1.057Z" transform="translate(-171.034 -104.107)"/>
    <path id="Path_471" data-name="Path 471" d="M137.656,184h-1.128a.529.529,0,0,0,0,1.057h1.128a.529.529,0,0,0,0-1.057Z" transform="translate(-126.416 -141.289)"/>
    <path id="Path_472" data-name="Path 472" d="M196.931,184h-12.4a.529.529,0,0,0,0,1.057h12.4a.529.529,0,0,0,0-1.057Z" transform="translate(-171.034 -141.289)"/>
    <path id="Path_473" data-name="Path 473" d="M137.656,224h-1.128a.529.529,0,1,0,0,1.057h1.128a.529.529,0,1,0,0-1.057Z" transform="translate(-126.416 -178.47)"/>
    <path id="Path_474" data-name="Path 474" d="M184.529,225.057H195.8a.529.529,0,1,0,0-1.057H184.529a.529.529,0,1,0,0,1.057Z" transform="translate(-171.034 -178.47)"/>
    <path id="Path_475" data-name="Path 475" d="M137.656,264h-1.128a.529.529,0,1,0,0,1.057h1.128a.529.529,0,1,0,0-1.057Z" transform="translate(-126.416 -215.651)"/>
    <path id="Path_476" data-name="Path 476" d="M184.529,265.057h9.02a.529.529,0,1,0,0-1.057h-9.02a.529.529,0,1,0,0,1.057Z" transform="translate(-171.034 -215.651)"/>
    <path id="Path_477" data-name="Path 477" d="M137.656,304h-1.128a.529.529,0,0,0,0,1.057h1.128a.529.529,0,0,0,0-1.057Z" transform="translate(-126.416 -252.832)"/>
    <path id="Path_478" data-name="Path 478" d="M196.931,304h-12.4a.529.529,0,0,0,0,1.057h12.4a.529.529,0,0,0,0-1.057Z" transform="translate(-171.034 -252.832)"/>
    <path id="Path_479" data-name="Path 479" d="M137.656,344h-1.128a.529.529,0,1,0,0,1.057h1.128a.529.529,0,1,0,0-1.057Z" transform="translate(-126.416 -290.013)"/>
    <path id="Path_480" data-name="Path 480" d="M195.24,344H184.529a.529.529,0,1,0,0,1.057H195.24a.529.529,0,1,0,0-1.057Z" transform="translate(-171.034 -290.013)"/>
  </g>
</svg>
