<svg xmlns="http://www.w3.org/2000/svg" width="724" height="1788" fill="none"><path stroke="#fff" stroke-dasharray="9 9" stroke-width="3" d="m316.498 1.5-18 10m-205.999 189c-16 10.4-31 23.333-36.5 28.5-35.167 40.5-89 146.5-23 246.5 11.817 16.039 96.675 115.45 204.045 69.654 45.577-19.44 71.305-64.602 90.456-110.301 23.502-56.079 59.487-126.722 114.499-143.353 86-26 195.5-13 239 99.5 10 41.5 48.5 180-41.5 242.5-20.5 12.5-66.5 29.5-158 21.5-18.5 0-206-33.5-216.5 49.5-8.401 105.009-85.94 180.632-12.849 256.495 10.111 10.495 20.605 20.504 31.185 29.579 12.071 10.356 25.802 18.726 40.983 23.466 22.927 7.15 49.134 10.82 73.681 8.96 26.4-2 100.667-6.17 134.5-8 40.198-7.26 135.523 1.56 171.904 56.51 22.709 34.3 17.003 79.58 16.422 120.71-.555 39.33-5.918 85.45-25.512 119.83-13.334 23.39-41.446 30.88-68.371 31.18-140.275 1.59-390.312 28.4-396.443 169.77 0 45-29.5 208.5 268 239.5 47.764 0 144.033-1.64 205 33.41"/></svg>