<svg xmlns="http://www.w3.org/2000/svg" width="1919" height="135" fill="none"><path fill="#502C1E" d="M1911.07 52.075c-4.17.731-7.26 2.437-9.67 2.112-4.23-.569-2.84-1.327-8.42-.433-5.58.866-7.64 2.328-11.19 1.029-3.54-1.3-2.08.08-7.66.947s-2.76 1.49-10.48 1.03c-7.72-.488-8.42-.461-11.91-.353-3.5.109-3.47.813-9.75 1.706-6.29.893-4.88.866-9.78 1.002-4.9.135-3.49.785-12.59.379-9.13-.433-1.41.027-9.13-.433-7.71-.46-9.01 2.382-12.62-.325-3.6-2.708-2.89-3.439-7.79-2.572-4.88.866-6.21 3.005-11.16 1.732-4.96-1.245-5.63-1.245-9.15-1.137-3.5.108-7.64 2.356-9.13-1.137-1.52-3.466-3.66-5.523-5.71-3.357-2.03 2.166-3.39 3.628-6.96 1.624-3.55-2.003-7.72-.487-11.21.325-3.47.785-4.82 2.247-6.99.894-2.14-1.327-3.66-4.82-7.15-4.711-3.52.108-7.01.216-9.91-3.222s-5.17-8.285-6.47-5.443c-1.33 2.843-4.69 7.175-10.97 7.365-6.31.19-8.42-.46-14.7.433-6.29.894-9.72 2.41-13.98 1.137-4.25-1.272-2.68 4.305-11.96-1.733-9.29-6.064-13.63-10.126-14.25-8.014-.65 2.14 3.85 11.128-.4 9.856-4.26-1.273-10.59-3.195-13.41-3.114-2.79.081-9.86-1.814-9.86-1.814s.95 7.716-3.38 4.332c-4.31-3.385-5.77-5.47-9.26-5.361-3.5.108-4.25-1.273-8.45-1.137s-1.38.73-5.71-4.061c-4.36-4.793-7.21-6.12-7.13-3.304s-3.35 5.01-6.9 3.737c-3.55-1.3-9.8-.406-12.62-.325-2.79.081-4.22-.569-5.01-4.061-.81-3.493-4.33-4.089-4.33-4.089s-4.2.136-6.31.19-9.64 5.225-11.84 2.464c-2.19-2.735 3.58 2.003-2.19-2.735-5.74-4.765-9.37-8.854-9.94-4.63-.57 4.25-.59 3.52-4.01 6.444-3.41 2.924-11.04 4.549-11.04 4.549s-3.5 1.516-5.61.866-6.99.217-9.12-.433c-2.12-.623-5.61.162-9.18-2.545-3.58-2.708-2.87-2.735-4.91.162-2 2.87-3.38 3.601-6.25 1.598s-7.07-2.6-7.07-2.6-4.14 2.22-7.01-.487c-2.9-2.734-4.23-.569-7.83-3.98s-9.29-5.334-10.59-2.49c-1.32 2.842-6.2 3.708-6.12 6.524.09 2.816-2.6 6.417-4.76 4.36-2.17-2.058-4.31-3.385-2.25-5.551 2.03-2.166-1.57-5.578-2.87-2.03-1.3 3.573-5.25 12.129-6.04 8.636-.78-3.492-2.92-4.142-3.71-6.931-.78-2.789-3.14-4.224-4.25-3.547-1.92 1.137-2.06 3.033-4.12 4.495-2.05 1.489-1.51-3.466-4.33-4.089-2.82-.622-6.96 2.329-9.04 1.679-2.12-.623-9.83-.406-9.83-.406s-4.15 2.247-6.31.19c-2.17-2.058-7.77-2.573-9.24-4.658-1.46-2.057-6.41-3.33-7.85-5.388-1.46-2.057-3.38 4.333-6.93 3.033s-5.01-3.357-8.56-5.361c-3.57-2.004-8.47-1.841-8.29 3.763.17 5.632-5.55 1.57-5.55 1.57s-3.65-5.523-6.5-6.85c-2.84-1.326-7.09-2.598-6.3.19.78 2.789-1.25 5.659-1.25 5.659s-6.17 3.71-9.07.975c-2.87-2.735-6.42-4.035-6.42-4.035s-6.26 1.598-9.8.298c-3.55-1.3-8.45-1.137-11.27-1.76-2.84-.622-12.59.38-12.59.38s-8.56-4.657-10.53-1.083c-2.01 3.573-8.32 3.059-9.78 1.001-1.46-2.084-9.91-3.222-12.1-6.66-2.22-3.439-2.9-2.735-5.77-5.442-2.87-2.735-5.82-6.85-7.8-3.276-2 3.573-7.66.92-7.66.92s-6.42-3.33-7.72-.46c-1.33 2.87-7.66 1.651-11.86 1.76-4.2.135-9.07.974-12.57 1.083-3.49.108-7.74-1.165-9.1.974-1.32 2.14-8.31 3.06-10.39 3.114-2.12.054-4.96-1.95-9.18-2.545-4.23-.569-11.21.352-11.21.352s-5.61-.542-6.37-2.626c-.76-2.085-3.76-8.34-5.06-5.47-1.33 2.87-8.4.244-8.32 3.06.09 2.816-3.46 1.516-3.38 4.332s-1.95 4.982-4.87.84c-2.93-4.116-5.66-1.219-7.86-4.685-2.19-3.438-5.03-4.061-5.6.163-.57 4.25-4.9.135-5.47 4.386-.57 4.25-3.96 8.556-4.04 5.74s-5.12-6.877-5.71-4.034c-.62 2.843-10.45 1.733-11.05 5.956-.57 4.251-4.06 4.36-7.55 5.172-3.47.812-6.96 2.328-10.51.324-3.58-2.003-7.85-4.683-11.97-1.76-4.12 2.925-6.91 3.033-9.67 5.226-2.73 2.193-5.52 2.274-11.13 2.437-5.6.162-8.31 3.06-8.31 3.06s-2.3-6.959-5.8-6.878c-3.49.109-4.82 2.248-6.85 5.145-2.03 2.87-4.736 5.767-12.453 5.306-7.718-.487-14.027-1.001-15.327 2.572-1.3 3.547-6.147 5.118-11.021 5.957-4.875.84-10.48 1.029-16.086 1.191s-2.247-5.55-8.367 1.652c-6.066 7.23-19.985 10.451-19.985 10.451s-13.16 5.334-16.031 2.6c-2.897-2.735-7.934-7.5-9.883-2.519-1.95 4.982-1.977 4.278-9.045 2.383s-11.996-3.168-15.435-.948-2.031 2.166-8.286 3.764c-6.256 1.597-8.287 3.763-12.484 3.899-4.197.135-9.017 3.086-11.915-.352-2.897-3.439-6.58-8.935-12.835-7.338s-9.722 3.114-11.807 3.168c-2.112.054.65-2.139-4.982-2.68s-5.579.866-13.242 2.518c-7.664 1.624-6.201 3.709-10.48 1.028-4.278-2.68-5.064-5.469-10.588-2.49s-26.348 7.77-36.015 8.068c-9.695.298-6.093-9.558-21.583-9.07-15.489.46-23.125 4.602-29.056.893-5.93-3.71-7.907-5.604-19.47-3.303s-15.327 6.309-21.23 2.572c-5.93-3.71-7.853-3.655-15.652-5.36s-27.268-5.01-33.09-4.847c-5.795.162-23.234.704-29.084-1.056s-16.031-2.518-21.338-1.3c-5.308 1.219-10.967-2.843-13.567.406-1.57 1.977-3.683 5.957-11.725-3.547-8.043-9.476-19.524-5.252-19.524-5.252s-13.269 10.126-15.381 4.359-8.151-13.375-15.76-9.26c-7.637 4.116-21.122 6.471-21.122 6.471s-19.47-3.303-25.211-1.191c-5.768 2.112-23.18 2.653-27.215-3.06-4.035-5.712-9.911-7.472-19.551-5.252-9.613 2.247-11.942-11.318-19.578-7.202-7.61 4.115-11.319 10.072-17.114 10.261-5.795.163-15.544-1.489-15.544-1.489s-9.126-1.002-15.489.46c-6.364 1.49-10.724 5.713-15.327 6.309-4.604.596-27.459-10.83-31.033-1.002C259.095 46.823 249.4 47.12 249.4 47.12s-15.273-4.359-15.543-1.489c-.271 2.87-5.579 7.96-11.509 4.251-5.93-3.71-11.78-5.496-19.47-3.303-7.691 2.166-32.739 6.823-32.739 6.823s-7.88-6.904-12.619-3.52c-4.143 2.951-1.137 9.26-10.561 6.173-15.733-5.117-17.655-7.256-25.4-7.012-7.745.243-13.431 4.305-19.308 2.518-5.849-1.76-17.71-9.206-17.71-9.206s-7.96-7.554-11.67-1.597c-3.683 5.956-9.803-3.601-11.374 8.122-1.598 11.724-3.412 15.677-15.029 16.029s-11.86-7.419-17.656-7.256-7.88-5.253-16.166-5.334C3.981 52.238 0 51.669 0 51.669v36.443s5.172 0 6.337 1.138c1.164 1.11 3.168-2.302 6.282-.488s8.34-2.545 9.965 1.219c1.652 3.79 4.983.243 7.23-.975 2.275-1.219 4.252 1.408 5.822 3.276 1.598 1.868 4.604.244 6.5-.19 1.895-.433 5.361.596 6.173 1.733.786 1.137 4.577 1.868 7.745.352 2.14-1.029 2.6-.46 5.308 2.247 1.245 1.246 7.392 3.141 13.891 2.925 6.5-.19 5.254-2.302 8.287-3.547 3.032-1.246 4.143-1.652 6.905.947 2.762 2.6 4.224.65 7.69 1.3s4.252 1.408 5.064 2.924 2.681.677 3.818-.487c1.111-1.192 3.087 1.056 3.494 2.193.406 1.137 3.384-1.273 4.522-2.058 1.137-.812 1.191 1.489 2.437 4.928 1.246 3.411 3.493 1.814 3.574 4.115.082 2.302 2.248-1.218 2.979-2.761.704-1.571 1.787-3.899 1.706-6.58s8.07.894 10.344.461c2.275-.434 1.598 2.247 2.085 5.685.488 3.439 3.06-.487 4.523-2.057 1.462-1.571 3.439-.109 4.143-2.031.704-1.949 5.362.217 6.472-.948 1.11-1.191 3.899 2.573 5.47 4.062s3.439-.488 5.389 1.381c1.976 1.868 3.547 3.357 5.524 5.983 2.004 2.626 7.203-2.139 8.042.921.867 3.032 5.362.216 6.445-1.733s2.627-2.004 5.01 1.381 4.495-2.843 5.768.974c1.272 3.791 3.114 1.842 5.713-.541s5.01 1.002 8.395-.65c3.385-1.651 5.253-3.222 5.578-4.765s5.687-1.327 7.285.541c1.597 1.869 4.197-.893 4.603.623.433 1.516 3.493 1.814 3.412-.866s2.166-4.278 4.495-2.816 3.087.677 4.279 2.545 4.522-2.058 5.362-.162c.812 1.895 3.547 4.115 5.497 4.846 1.922.704 6.499-.19 7.311 1.327s1.598 2.247 5.768.974 4.522-2.436 6.499-.189 4.224.244 5.687-1.706c1.462-1.949 4.495-3.574 8.665-4.088 4.197-.515 2.031 3.763 3.249 6.038 1.219 2.274 4.604.622 6.229 3.276 1.597 2.626 5.632-3.628 7.853-6.011 2.22-2.356 2.762 2.599 6.228 3.655s4.983.244 6.445-1.354c1.489-1.57 4.928-.92 5.009 1.002.055 1.922 2.735 2.22 3.954 4.495 1.219 2.247 9.18.108 11.888 1.57s5.686-1.327 8.232-5.632 4.983.244 8.124 3.195c3.141 2.978 3.439.271 5.686-1.326 2.248-1.598 5.254-3.222 8.016-.244s3.06-.488 4.901-2.464c1.842-1.977 3.764-1.652 4.631 1.408.866 3.032 4.657 2.166 4.712 4.467.081 2.302 5.686-1.326 7.528-4.061s5.28-2.464 7.988-1.408c2.708 1.083 4.17-1.272 7.907-3.682s6.066-1.327 7.284.92c1.219 2.275 4.252 1.408 6.12.19s5.335-.542 6.12.569c.786 1.137 7.203-1.733 9.83-3.737 2.6-2.003 2.898-5.063 7.339-9.828 4.441-4.738 4.982.623 6.851-.975s5.524-6.687 6.255-8.258c.704-1.543 7.203-1.733 9.911-1.056s6.012-3.249 6.743-4.44c.731-1.164 4.576-.136 6.174 1.733 1.597 1.868 6.038-2.87 7.094-5.578 1.057-2.734 2.627-1.624 5.308-.92 2.681.676 3.331-3.953 3.656-5.09.352-1.165 9.586 1.245 11.915 2.328s1.895-.433 1.814-2.735c-.054-2.301 5.605-4.386 9.396-5.28 3.792-.866 7.718 2.844 8.557 4.739.813 1.895 4.658 2.545 7.718 2.437 3.06-.082 4.983.622 5.064 3.303s3.168 3.736 5.443 2.924c2.275-.84-.867-3.06 1.029-4.25 1.895-1.192 3.087.676 4.685 2.923 1.597 2.248 3.439-.108 5.686-1.706 2.248-1.597 3.412-.866 3.683-3.953.298-3.086 4.631 1.002 5.064 2.546.433 1.516 2.681-.082 6.011-3.629 3.331-3.546 4.577-.514 6.175 1.733 1.597 2.248 2.735 2.22 3.574 4.874s2.275-.84 4.116-3.195 4.197-.135 5.389 1.38c1.191 1.49 8.909 4.333 8.909 4.333s5.389 1.002 6.878-.596c1.489-1.57 5.362-.162 8.097 2.816 2.762 2.978 8.828 1.273 12.673 1.543 3.818.271 3.06-.08 5.632-3.628 2.573-3.52 3.9 2.193 6.553 1.733s3.412-.866 6.96 2.464c3.547 3.357 4.197-.136 7.23-.975 3.033-.866 3.358-2.789 4.495-3.6 1.138-.813 4.604.243 4.522-2.438s3.764-1.651 5.01 1.002c1.219 2.654 3.087.677 4.306 3.71 1.245 3.032 8.476 2.815 9.288 4.332s2.762 2.22 2.843 5.28 3.466 1.434 3.818.27 2.221-1.977 3.71-3.953c1.463-1.977 6.526.569 6.797-2.897s2.329 1.083 3.141 2.6c.813 1.515 3.494 2.571 3.575 4.9.081 2.301 3.926 3.709 4.63 1.787s2.979-2.789 3.791-1.246c.813 1.516 2.302.298 3.358-2.41 1.056-2.734 1.056-3.492 2.519-4.683 1.489-1.192 4.224 1.028 6.634 4.413 2.383 3.384 2.735 1.841 3.168 4.115.461 2.302 1.652 4.549 2.762 2.979 1.084-1.571 4.875-2.816 5.931-5.93s3.439-.108 3.439-.108 3.791-.894 5.01 1.38 2.355 1.842 4.711 3.683c2.329 1.841 1.246 3.411 1.327 6.471s1.95 1.489 3.385-2.004c1.435-3.492 2.681-.46 4.143-2.436 1.463-1.977 2.681.297 3.873 2.193 1.191 1.868 1.976 2.247 4.657 2.545s5.362.216 6.851-.975c1.49-1.191 3.385-1.625 4.225.271.812 1.895 2.301.704 2.735 2.22s1.272 4.576 2.708 1.056c1.435-3.493 4.061-4.711 4.143-1.652.108 3.06 2.004 2.627 4.224 1.029 2.248-1.597 2.221-2.762 4.901-2.843 2.681-.081 1.598 2.247 2.411 4.549.839 2.274 4.197-.515 5.361.216 1.165.731-.271 3.466 1.3 4.955s6.12-.189 8.774-.65c2.654-.46 4.982 1.002 7.311 2.085s-.677 3.087-2.545 4.305c-1.869 1.219.487 3.439 4.305 3.33s.461 2.681 1.3 4.955c.84 2.275 7.934-3.33 9.017-4.873 1.084-1.571 2.681-.082 3.494 1.435.812 1.516 2.004 3.005 2.735 1.841s3.033-.488 5.74.595c2.708 1.056 3.331-3.167 4.875-3.222 1.516-.054-.217 5.388.216 7.663.461 2.274 5.958-5.551 5.958-5.551s2.951-3.547 3.683-4.711 3.385-2.03 9.45-3.357c6.066-1.354 6.824-2.139 6.824-2.139s5.741-.162 7.312 1.3c1.57 1.489.108 3.438 1.327 6.092 1.245 2.653 4.549-1.679 5.659-2.843 1.11-1.192 2.708 1.462 3.168 3.736.434 2.301 1.896-.433 2.979-2.383s7.366-9.07 7.312-11.344c-.082-2.302 6.119-.19 8.015-.244 1.923-.054 1.923.325 5.714-.541 3.791-.894 3.791-1.652 6.472-.596 2.708 1.083 2.735 1.841 5.009 1.787 2.302-.054 1.625 3.032 5.064 3.303s4.874-2.843 6.851-.975c1.977 1.869 3.466.677 5.037 2.139 1.571 1.49 1.977 1.869 3.114 1.842 1.137-.028 3.412-.867 5.714-.948 2.274-.081 2.274-.839 3.385-1.246 1.137-.406 3.385-1.245 5.334-.541 1.923.704 3.791-.894 6.797-3.276 2.979-2.383 6.905 1.326 8.476 2.437s1.977 1.868 4.279 2.572 4.982.216 9.179.108c4.198-.135 5.308-1.706 7.176-2.897 1.869-1.218 2.735 2.22 5.039 2.139 2.3-.054 3.49 1.814 5.06 3.303s4.44-4.359 5.99-4.386a53 53 0 0 1 6.87.162c3.06.298 3.39-1.651 4.12-3.574.7-1.949 3.03-.866 4.6 1.002 1.6 1.868 3.44-.487 4.5-2.816 1.08-2.328 6.5.19 9.21 1.246 2.7 1.083 2.57-3.141 5.57-4.765 3.01-1.625 4.69 2.924 6.94 1.326 2.24-1.597 3.82-.108 5.39 1.733 1.59 1.868 3.52 2.978 5.41 2.518 1.9-.433 3.03-.487 3.09 1.435.05 1.922 2 3.005 3.14 2.572 1.14-.406 2 3.006 2.06 5.307.05 2.301 3.82-.108 6.79-2.112 3.01-2.003 3.85.65 4.28 2.545.44 1.895 3.14 2.599 4.55-1.272s3.04-.109 5.31-1.3c2.25-1.218 3.41-.866 5.8 1.733 2.38 2.599 2.76 2.599 4.68 3.303s3.36-2.41 5.31-1.3c1.95 1.083 4.93-1.299 6.04-2.49s3.35-2.41 4.17-.515c.81 1.895 3.92 3.709 8.47 2.058 4.52-1.679 3.71-3.953 6.39-3.276s2.98-2.789 4.44-4.766c1.47-1.949 4.61.244 7.29.569 2.68.298 3.46.271 4.9-2.464 1.43-2.734 5.69-.947 7.26.163s4.63 1.408 5.71-.569c1.08-1.949 2.25-1.218 5.36.596 3.12 1.841 3.82-.109 4.5-2.816.67-2.708 4.22.244 5.39 1.381 1.16 1.11 4.95-.163 6.82-2.139 1.84-1.977 1.95 1.083 3.52 2.572s5.01 1.002 6.55 2.491c1.57 1.489 5.69-1.327 6.42-2.87.71-1.543 4.23.65 5.44 2.897 1.22 2.274 3.85.65 4.55-1.3.71-1.922 3.39-1.624 3.85.65.43 2.302 3.41-.487 4.87-3.222 1.44-2.734 3.36-3.168 5.99-4.007 2.65-.839 4.57-.135 8.37-1.408 3.79-1.272 1.97 2.247 4 5.632 2.01 3.384 0 0 2.28-.461 2.27-.46 4.19-.135 5.74.217 1.54.352 4.57-.514 5.68-1.706 1.12-1.191 2.69-.081 5.39 1.76 2.74 1.841 2.6-2.382 4.85-3.98s3.17 3.357 3.6 5.28c.44 1.895 3.9 2.951 5.74-.163 1.82-3.113 3.85.65 5.31-1.326 1.46-1.95 2.65-.461 5.77.974 3.11 1.435 3.03-1.245 3.71-4.332s2.27-.433 2.98-2.382c.7-1.95 2.24-1.625 4.19-.136 1.95 1.462 4.23.244 7.59-1.76 3.38-2.003 3.06.298 5.79 1.76 2.71 1.462 3.44-.487 3.74-3.195s1.08-1.949 3.41-.487 6.07-1.327 8.8.487c2.74 1.842 3.17 3.737 7.01 4.387 3.85.649 2.2-3.52 3.66-5.09 1.49-1.571 1.87-1.598 4.93-1.3s3.36-2.41 4.44-4.36c1.11-1.949 3.03-1.245 5.39.975 2.35 2.22 4.49-2.815 6.8-2.897 2.3-.08 2.68.298 5.79 1.733l8.07 1.3s4.14-2.437 6.77-3.655c2.65-1.246 3.74-2.41 5.25-3.222 1.52-.812 4.5-3.222 7.21-2.518 2.7.677 4.82-4.766 5.14-6.688.33-1.922 5.63-4.007 7.18-3.276 1.54.704 7.34 2.085 9.58.867 2.28-1.219 4.96-.163 5.8 2.138.81 2.275 4.66 2.166 7.04 5.55s8.83 1.652 10.34 1.22c1.52-.434 7.67.162 10.7.053 3.06-.08 3.71-3.574 4.41-5.117.74-1.57 4.58-.135 4.66 2.166s3.52 2.572 5.09 3.682 2.71.677 2.66-.839c-.06-1.543 5.3-1.706 5.3-1.706l3.74-2.788s2.25-1.219 2.33.704c.05 1.922-.24 4.602.19 6.525.43 1.922 3.33-3.953 3.65-5.47.36-1.543 2.71.677 4.23.623 1.54-.054 1.81-3.899 1.73-5.821-.05-1.922 3.04-.081 3.87 1.408.82 1.516 2.04 4.17 3.55 4.115 1.55-.054.65-3.844 1.73-5.794 1.09-1.95 1.63 3.033 3.23 5.28s4.22.244 6.14.948c1.93.703 1.49-1.192 6.04-2.491s.06 1.922 4.31 3.709c4.28 1.787 5.39 1.38 6.88-.217 1.49-1.57 3.73-2.788 5.6-4.386 1.87-1.597 3.55 2.951 5.07 2.924 1.51-.054 5.33-.541 6.9 1.327s4.17-.894 4.9-2.085c.73-1.164 3.82.271 5.45 2.897 1.59 2.654 4.17-.893 6.55 1.733s4.52-1.679 6.42-2.49c1.89-.813 1.97 1.867 3.52 2.977 1.57 1.11 2.35 1.841 3.92 3.71s2.63-1.625 4.07-4.738c1.43-3.114 4.27 2.166 4.27 2.166s2.71 1.055 3.9 2.95c1.22 1.869 3.42-1.272 4.88-3.6 1.46-2.356 1.51-.433 3.9 2.572 2.38 3.005 4.19-.135 6.09-.948s6.12.19 6.93 1.327c.79 1.137 7.29.541 9.89-1.841s2.7 1.462 3.54 3.71c.84 2.273 4.47-3.954 5.28-2.844.79 1.137 2.39 3.006 3.98 5.253 1.6 2.247 5.34-.163 7.32 1.327 1.95 1.462 6.82-1.733 7.93-3.304s4.22 1.03 4.66 2.925c.43 1.895 1.6 1.868 4.22.622 2.66-1.218 5.72-.947 5.74.217.03 1.137 4.23.65 6.07-2.112 1.81-2.735 3.46.677 6.55 2.112s5.2-4.765 7.15-3.655c1.95 1.083 4.23.243 4.55-1.273.32-1.543 2.57-3.926 5.61-4.386 3.03-.487 2.11 6.85 2.16 8.772.06 1.923 2.93-4.684 4.39-7.04s2.19-3.14 5.71-.568 3.01-1.624 4.12-3.195 3.52 2.951 5.79 1.733c2.28-1.218 1.47-1.95 4.09-3.574 2.63-1.624 2.3-.054 6.39-3.249 4.12-3.195 4.25 1.408 5.74-.162s3.44-.488 4.63 1.787c1.22 2.274 3.8-.894 3.74-2.79-.05-1.921 4.2-.134 5.47 3.683 1.27 3.79 4.55-1.3 7.15-4.061s3.85.65 5.82 2.897c1.98 2.247 3.5 1.435 4.17-1.273.68-2.707 4.61.623 4.61.623s1.86-1.597 2.89-5.063c1.06-3.493 2.09 5.307 2.14 7.987.08 2.68 1.9-.812 5.2-5.144 3.31-4.332 3.03-.867 5.8 2.518 2.79 3.384 2.7 1.462 4.57-.514 1.84-1.977 3.04-1.246 5.66-2.491 2.66-1.246 4.23 1.028 6.15.595 1.9-.433 4.14-1.651 6.07-1.706 1.92-.054 3.14 2.6 4.71 4.089s3.9 2.951 5.41 2.518c1.52-.433 3.33-3.926 6.39-4.034 3.06-.082 3.04-.867 4.99.622 1.95 1.462 3.46.677 5.01 1.76 1.57 1.11 2.3-.08 4.11-2.436 1.84-2.356 3.06-.109 5.45 2.897 2.38 3.005 4.54-1.273 7.55-3.304 3.01-2.003 5.31-1.3 5.74-.162.41 1.137 3.39-1.625 7.91-3.303 4.55-1.679 8.77 1.868 8.77 1.868s3.47.054 4.71-.569c1.25-.622 1.47 3.683 3.77 3.574 2.33-.08 3-2.328 4.52-2.139s2.38-.46 3.66-1.489c1.27-.975 3.52-.325 5.03-.135 1.52.19 4.55.596 6.26 2.355 1.7 1.76 3.03 3.358 5.85 2.545 2.81-.812 3.11-.379 5.11 2.193 1.98 2.573 5.2 1.435 6.83.867 1.62-.569 2.9-.162 3.98-1.354.43-.46 1.08 2.247 2.44 2.464 1.27.19 2.84-.108 2.84-.108V51.804s-1.87-.758-7.93.298z"/></svg>